<?xml version="1.0" standalone="no"?>
<!DOCTYPE svg PUBLIC "-//W3C//DTD SVG 20010904//EN"
 "http://www.w3.org/TR/2001/REC-SVG-20010904/DTD/svg10.dtd">
<svg version="1.0" xmlns="http://www.w3.org/2000/svg"
 width="736.000000pt" height="642.000000pt" viewBox="0 0 736.000000 642.000000"
 preserveAspectRatio="xMidYMid meet">

<g transform="translate(0.000000,642.000000) scale(0.100000,-0.100000)"
fill="#000000" stroke="none">
<path d="M3340 3708 c-23 -53 -189 -723 -181 -731 22 -22 49 7 128 132 143
227 172 271 183 271 18 0 11 -31 -45 -215 -30 -99 -55 -184 -55 -188 0 -5 16
-7 37 -5 l36 3 59 215 c32 120 57 230 56 250 -3 33 -6 35 -40 38 -32 3 -44 -3
-78 -35 -22 -21 -67 -83 -100 -138 -33 -54 -60 -92 -60 -84 0 8 29 122 65 254
35 131 62 242 59 247 -11 17 -54 8 -64 -14z"/>
<path d="M4944 3710 c-42 -27 -79 -85 -104 -164 -21 -64 -23 -66 -56 -66 -28
0 -36 -5 -44 -26 -15 -39 -13 -44 25 -44 19 0 35 -2 35 -4 0 -1 -25 -97 -55
-211 -30 -114 -52 -212 -49 -217 8 -12 50 -10 61 5 6 6 34 105 64 220 l54 207
42 0 c32 0 45 5 53 19 21 40 13 51 -34 51 l-45 0 18 53 c43 125 61 142 125
125 40 -11 48 -10 56 2 19 30 11 49 -27 59 -55 16 -84 13 -119 -9z"/>
<path d="M6065 3638 c-2 -7 -12 -44 -23 -83 -17 -63 -21 -70 -46 -73 -18 -2
-30 -12 -37 -28 -14 -38 -11 -44 19 -44 l28 0 -53 -207 c-29 -115 -51 -214
-48 -220 2 -7 16 -13 30 -13 32 0 34 5 85 205 23 88 46 177 51 198 8 32 14 37
39 37 19 0 33 7 40 19 18 35 12 51 -20 51 -35 0 -35 -5 -10 90 11 41 20 76 20
78 0 9 -71 -1 -75 -10z"/>
<path d="M5462 3618 c-15 -15 -16 -60 0 -76 18 -18 53 -14 74 9 17 19 17 23 3
47 -16 30 -57 40 -77 20z"/>
<path d="M1175 3471 c-40 -24 -61 -49 -80 -94 -30 -72 -14 -138 39 -157 80
-30 76 -26 76 -79 0 -39 -6 -56 -26 -80 -14 -17 -34 -31 -44 -31 -18 0 -70 53
-70 71 0 16 -26 10 -45 -12 -19 -19 -19 -21 0 -56 27 -49 70 -75 116 -70 55 7
85 33 119 100 54 108 35 183 -54 206 -51 12 -62 35 -45 94 20 73 88 86 115 21
16 -39 15 -38 49 -22 36 16 31 44 -14 89 -45 45 -86 51 -136 20z"/>
<path d="M1904 3476 c-69 -31 -132 -134 -159 -262 -19 -92 -18 -141 4 -190 31
-67 104 -82 170 -34 38 26 97 142 117 226 9 42 14 98 12 141 -3 62 -7 77 -28
98 -31 31 -76 39 -116 21z m68 -91 c30 -105 -61 -362 -125 -353 -47 7 -45 152
3 281 38 102 103 140 122 72z"/>
<path d="M2614 3476 c-46 -21 -99 -90 -130 -169 -21 -56 -28 -95 -32 -174 l-4
-103 36 -36 c33 -33 41 -36 77 -31 52 7 83 28 116 80 50 78 75 164 81 273 4
100 4 101 -24 132 -34 37 -77 47 -120 28z m70 -95 c30 -106 -65 -362 -130
-349 -61 11 -22 284 53 364 32 35 64 29 77 -15z"/>
<path d="M4123 3471 c-79 -36 -148 -179 -160 -329 -6 -89 9 -140 51 -167 30
-20 83 -16 122 10 65 43 120 160 136 295 14 109 1 162 -45 190 -39 24 -51 24
-104 1z m65 -63 c17 -17 15 -132 -3 -203 -20 -77 -63 -155 -93 -168 -35 -16
-52 12 -52 87 1 168 91 341 148 284z"/>
<path d="M5426 3428 c-56 -199 -116 -441 -111 -449 4 -5 20 -9 36 -9 21 0 32
6 39 23 13 31 120 450 120 470 0 13 -9 17 -35 17 -33 0 -35 -2 -49 -52z"/>
</g>
</svg>
